<mxfile host="app.diagrams.net" modified="2022-03-11T16:31:46.847Z" agent="5.0 (Windows NT 10.0; Win64; x64) AppleWebKit/537.36 (KHTML, like Gecko) Chrome/98.0.4758.102 Safari/537.36" etag="P3wIsa-FRyva0c6xcWmg" version="16.6.7" type="github">
  <diagram id="1JMSee2UDSkdAxNfkw2s" name="Page-1">
    <mxGraphModel dx="2272" dy="2993" grid="1" gridSize="10" guides="1" tooltips="1" connect="1" arrows="1" fold="1" page="1" pageScale="1" pageWidth="850" pageHeight="1100" math="0" shadow="0">
      <root>
        <mxCell id="0" />
        <mxCell id="1" parent="0" />
        <mxCell id="L0XOrqGyj3-YNECDvazH-1" value="&lt;div style=&quot;font-size: 16px&quot; align=&quot;left&quot;&gt;&lt;br&gt;&lt;div style=&quot;font-size: 16px&quot; align=&quot;left&quot;&gt;&lt;font style=&quot;font-size: 16px&quot;&gt;Members can register online or through a receptionist, in any case the receptionist is responsible to verify the &lt;br&gt;registration. Only members can have a trainer. Members can be&amp;nbsp; trained by up to one trainer.&lt;/font&gt;&lt;/div&gt;&lt;div style=&quot;font-size: 16px&quot; align=&quot;left&quot;&gt;&lt;font style=&quot;font-size: 16px&quot;&gt;Trainers can train members&amp;nbsp;either in the Cardio Area or in the Weight Area. Each of the Areas should have at least&lt;/font&gt;&lt;/div&gt;&lt;div style=&quot;font-size: 16px&quot; align=&quot;left&quot;&gt;&lt;font style=&quot;font-size: 16px&quot;&gt;one&amp;nbsp; Staff&amp;nbsp;&lt;/font&gt;&lt;font&gt;member&amp;nbsp;&lt;/font&gt;&lt;span&gt;present at all times.&lt;/span&gt;&lt;/div&gt;&lt;div style=&quot;font-size: 16px&quot; align=&quot;left&quot;&gt;&lt;span&gt;Registered members and non-registered visitors may visit the gym. Non- members cannot book online and need to&amp;nbsp;&lt;/span&gt;&lt;/div&gt;&lt;div style=&quot;font-size: 16px&quot; align=&quot;left&quot;&gt;&lt;span&gt;show up at the front desk. Receptionists record subscriptions, admit members or&amp;nbsp;&lt;/span&gt;&lt;/div&gt;&lt;div style=&quot;font-size: 16px&quot; align=&quot;left&quot;&gt;&lt;span&gt;non members, provided that there is physical capacity available for the Cardio Area and the Weight Area.&lt;/span&gt;&lt;/div&gt;&lt;div style=&quot;font-size: 16px&quot; align=&quot;left&quot;&gt;&lt;span&gt;Payments per visit are made by non member, while members have on-going subscriptions.&amp;nbsp;&lt;/span&gt;&lt;/div&gt;&lt;div style=&quot;font-size: 16px&quot; align=&quot;left&quot;&gt;&lt;font style=&quot;font-size: 16px&quot;&gt;to see the capacity - &amp;gt; triggers (if statement) or query with select and join and unity&amp;nbsp; &lt;br&gt;&lt;/font&gt;&lt;/div&gt;&lt;div style=&quot;font-size: 16px&quot; align=&quot;left&quot;&gt;&lt;font style=&quot;font-size: 16px&quot;&gt;The registrations can be made by members directly on a website, or through the receptionists &lt;br&gt;&lt;/font&gt;&lt;/div&gt;&lt;div style=&quot;font-size: 16px&quot; align=&quot;left&quot;&gt;&lt;font style=&quot;font-size: 16px&quot;&gt;&lt;br&gt;&lt;/font&gt;&lt;/div&gt;&lt;div style=&quot;font-size: 16px&quot; align=&quot;left&quot;&gt;&lt;font style=&quot;font-size: 16px&quot;&gt;payments&lt;/font&gt;&lt;/div&gt;&lt;div style=&quot;font-size: 16px&quot; align=&quot;left&quot;&gt;&lt;font style=&quot;font-size: 16px&quot;&gt;annual subscription or pay per visit , two free visits per year for new visitors &lt;br&gt;&lt;/font&gt;&lt;/div&gt;&lt;div style=&quot;font-size: 16px&quot; align=&quot;left&quot;&gt;&lt;font style=&quot;font-size: 16px&quot;&gt;&lt;br&gt;&lt;/font&gt;&lt;/div&gt;&lt;div style=&quot;font-size: 16px&quot; align=&quot;left&quot;&gt;&lt;font style=&quot;font-size: 16px&quot;&gt;&lt;br&gt;&lt;/font&gt;&lt;/div&gt;&lt;div style=&quot;font-size: 16px&quot; align=&quot;left&quot;&gt;&lt;font style=&quot;font-size: 16px&quot;&gt;&lt;br&gt;&lt;/font&gt;&lt;/div&gt;&lt;div style=&quot;font-size: 16px&quot; align=&quot;left&quot;&gt;&lt;font style=&quot;font-size: 16px&quot;&gt;&lt;br&gt;&lt;/font&gt;&lt;/div&gt;&lt;div style=&quot;font-size: 16px&quot; align=&quot;left&quot;&gt;&lt;span&gt;&amp;nbsp;&lt;/span&gt;&lt;span&gt;&amp;nbsp;&lt;/span&gt;&lt;span&gt;&amp;nbsp;&lt;/span&gt;&lt;br&gt;&lt;/div&gt;&lt;div style=&quot;font-size: 16px&quot; align=&quot;left&quot;&gt;&lt;font style=&quot;font-size: 16px&quot;&gt;&lt;span style=&quot;white-space: pre&quot;&gt; &lt;/span&gt;&lt;span style=&quot;white-space: pre&quot;&gt; &lt;/span&gt;&lt;span style=&quot;white-space: pre&quot;&gt; &lt;/span&gt;&lt;br&gt;&lt;/font&gt;&lt;/div&gt;&amp;nbsp;&lt;br&gt;&lt;div style=&quot;font-size: 16px&quot; align=&quot;left&quot;&gt;&lt;font style=&quot;font-size: 16px&quot;&gt;&lt;br&gt;&lt;/font&gt;&lt;/div&gt;&lt;/div&gt;&lt;div style=&quot;font-size: 16px&quot; align=&quot;left&quot;&gt;&lt;font style=&quot;font-size: 16px&quot;&gt;&lt;br&gt;&lt;/font&gt;&lt;/div&gt;" style="text;html=1;align=left;verticalAlign=middle;resizable=0;points=[];autosize=1;strokeColor=none;fillColor=none;" vertex="1" parent="1">
          <mxGeometry x="-20" y="-1380" width="830" height="330" as="geometry" />
        </mxCell>
        <mxCell id="L0XOrqGyj3-YNECDvazH-2" value="Members" style="swimlane;childLayout=stackLayout;horizontal=1;startSize=30;horizontalStack=0;rounded=1;fontSize=14;fontStyle=0;strokeWidth=2;resizeParent=0;resizeLast=1;shadow=0;dashed=0;align=center;" vertex="1" parent="1">
          <mxGeometry x="570" y="-1070" width="160" height="120" as="geometry" />
        </mxCell>
        <mxCell id="L0XOrqGyj3-YNECDvazH-3" value="+Member_id&#xa;+Member_since&#xa;+Favorite Type of TrainingÂ &#xa;(caridio or weight)&#xa;" style="align=left;strokeColor=none;fillColor=none;spacingLeft=4;fontSize=12;verticalAlign=top;resizable=0;rotatable=0;part=1;" vertex="1" parent="L0XOrqGyj3-YNECDvazH-2">
          <mxGeometry y="30" width="160" height="90" as="geometry" />
        </mxCell>
        <mxCell id="L0XOrqGyj3-YNECDvazH-4" value="Receptionists " style="swimlane;childLayout=stackLayout;horizontal=1;startSize=30;horizontalStack=0;rounded=1;fontSize=14;fontStyle=0;strokeWidth=2;resizeParent=0;resizeLast=1;shadow=0;dashed=0;align=center;" vertex="1" parent="1">
          <mxGeometry x="850" y="-820" width="160" height="120" as="geometry" />
        </mxCell>
        <mxCell id="L0XOrqGyj3-YNECDvazH-5" value="+Attribute1&#xa;+Attribute2&#xa;+Attribute3" style="align=left;strokeColor=none;fillColor=none;spacingLeft=4;fontSize=12;verticalAlign=top;resizable=0;rotatable=0;part=1;" vertex="1" parent="L0XOrqGyj3-YNECDvazH-4">
          <mxGeometry y="30" width="160" height="90" as="geometry" />
        </mxCell>
        <mxCell id="L0XOrqGyj3-YNECDvazH-6" value="Trainers" style="swimlane;childLayout=stackLayout;horizontal=1;startSize=30;horizontalStack=0;rounded=1;fontSize=14;fontStyle=0;strokeWidth=2;resizeParent=0;resizeLast=1;shadow=0;dashed=0;align=center;" vertex="1" parent="1">
          <mxGeometry x="1090" y="-820" width="160" height="120" as="geometry" />
        </mxCell>
        <mxCell id="L0XOrqGyj3-YNECDvazH-7" value="+Attribute1&#xa;+Attribute2&#xa;+Attribute3" style="align=left;strokeColor=none;fillColor=none;spacingLeft=4;fontSize=12;verticalAlign=top;resizable=0;rotatable=0;part=1;" vertex="1" parent="L0XOrqGyj3-YNECDvazH-6">
          <mxGeometry y="30" width="160" height="90" as="geometry" />
        </mxCell>
        <mxCell id="L0XOrqGyj3-YNECDvazH-8" value="Supervisors" style="swimlane;childLayout=stackLayout;horizontal=1;startSize=20;horizontalStack=0;rounded=1;fontSize=14;fontStyle=0;strokeWidth=2;resizeParent=0;resizeLast=1;shadow=0;dashed=0;align=center;" vertex="1" parent="1">
          <mxGeometry x="590" y="-840" width="159" height="120" as="geometry" />
        </mxCell>
        <mxCell id="L0XOrqGyj3-YNECDvazH-9" value="+Attribute1&#xa;+Attribute2&#xa;+Attribute3" style="align=left;strokeColor=none;fillColor=none;spacingLeft=4;fontSize=12;verticalAlign=top;resizable=0;rotatable=0;part=1;" vertex="1" parent="L0XOrqGyj3-YNECDvazH-8">
          <mxGeometry y="20" width="159" height="100" as="geometry" />
        </mxCell>
        <mxCell id="L0XOrqGyj3-YNECDvazH-10" value="Cardio Area" style="swimlane;childLayout=stackLayout;horizontal=1;startSize=30;horizontalStack=0;rounded=1;fontSize=14;fontStyle=0;strokeWidth=2;resizeParent=0;resizeLast=1;shadow=0;dashed=0;align=center;" vertex="1" parent="1">
          <mxGeometry x="1090" y="-580" width="160" height="120" as="geometry" />
        </mxCell>
        <mxCell id="L0XOrqGyj3-YNECDvazH-11" value="+Attribute1&#xa;+Attribute2&#xa;+Attribute3" style="align=left;strokeColor=none;fillColor=none;spacingLeft=4;fontSize=12;verticalAlign=top;resizable=0;rotatable=0;part=1;" vertex="1" parent="L0XOrqGyj3-YNECDvazH-10">
          <mxGeometry y="30" width="160" height="90" as="geometry" />
        </mxCell>
        <mxCell id="L0XOrqGyj3-YNECDvazH-12" value="Locker " style="swimlane;childLayout=stackLayout;horizontal=1;startSize=30;horizontalStack=0;rounded=1;fontSize=14;fontStyle=0;strokeWidth=2;resizeParent=0;resizeLast=1;shadow=0;dashed=0;align=center;" vertex="1" parent="1">
          <mxGeometry x="1330" y="-580" width="160" height="120" as="geometry" />
        </mxCell>
        <mxCell id="L0XOrqGyj3-YNECDvazH-13" value="+Attribute1&#xa;+Attribute2&#xa;+Attribute3" style="align=left;strokeColor=none;fillColor=none;spacingLeft=4;fontSize=12;verticalAlign=top;resizable=0;rotatable=0;part=1;" vertex="1" parent="L0XOrqGyj3-YNECDvazH-12">
          <mxGeometry y="30" width="160" height="90" as="geometry" />
        </mxCell>
        <mxCell id="L0XOrqGyj3-YNECDvazH-14" value="Weight Area" style="swimlane;childLayout=stackLayout;horizontal=1;startSize=30;horizontalStack=0;rounded=1;fontSize=14;fontStyle=0;strokeWidth=2;resizeParent=0;resizeLast=1;shadow=0;dashed=0;align=center;" vertex="1" parent="1">
          <mxGeometry x="850" y="-580" width="160" height="120" as="geometry" />
        </mxCell>
        <mxCell id="L0XOrqGyj3-YNECDvazH-15" value="+Attribute1&#xa;+Attribute2&#xa;+Attribute3" style="align=left;strokeColor=none;fillColor=none;spacingLeft=4;fontSize=12;verticalAlign=top;resizable=0;rotatable=0;part=1;" vertex="1" parent="L0XOrqGyj3-YNECDvazH-14">
          <mxGeometry y="30" width="160" height="90" as="geometry" />
        </mxCell>
        <mxCell id="L0XOrqGyj3-YNECDvazH-16" style="edgeStyle=orthogonalEdgeStyle;rounded=0;orthogonalLoop=1;jettySize=auto;html=1;entryX=1;entryY=0.5;entryDx=0;entryDy=0;fontSize=16;endArrow=none;endFill=0;curved=1;exitX=0.5;exitY=0;exitDx=0;exitDy=0;" edge="1" parent="1" source="L0XOrqGyj3-YNECDvazH-18" target="L0XOrqGyj3-YNECDvazH-3">
          <mxGeometry relative="1" as="geometry" />
        </mxCell>
        <mxCell id="L0XOrqGyj3-YNECDvazH-17" style="edgeStyle=orthogonalEdgeStyle;curved=1;orthogonalLoop=1;jettySize=auto;html=1;entryX=0.5;entryY=0;entryDx=0;entryDy=0;endArrow=none;endFill=0;" edge="1" parent="1" source="L0XOrqGyj3-YNECDvazH-18" target="L0XOrqGyj3-YNECDvazH-6">
          <mxGeometry relative="1" as="geometry" />
        </mxCell>
        <mxCell id="L0XOrqGyj3-YNECDvazH-18" value="has" style="shape=rhombus;html=1;dashed=0;whitespace=wrap;perimeter=rhombusPerimeter;fontSize=16;" vertex="1" parent="1">
          <mxGeometry x="1140" y="-913" width="60" height="50" as="geometry" />
        </mxCell>
        <mxCell id="L0XOrqGyj3-YNECDvazH-19" style="edgeStyle=orthogonalEdgeStyle;curved=1;rounded=0;orthogonalLoop=1;jettySize=auto;html=1;entryX=0.5;entryY=1;entryDx=0;entryDy=0;fontSize=16;startArrow=none;startFill=0;endArrow=none;endFill=0;" edge="1" parent="1" source="L0XOrqGyj3-YNECDvazH-21" target="L0XOrqGyj3-YNECDvazH-7">
          <mxGeometry relative="1" as="geometry" />
        </mxCell>
        <mxCell id="L0XOrqGyj3-YNECDvazH-20" style="edgeStyle=orthogonalEdgeStyle;curved=1;rounded=0;orthogonalLoop=1;jettySize=auto;html=1;exitX=0.5;exitY=1;exitDx=0;exitDy=0;entryX=0.5;entryY=0;entryDx=0;entryDy=0;fontSize=16;startArrow=none;startFill=0;endArrow=block;endFill=1;" edge="1" parent="1" source="L0XOrqGyj3-YNECDvazH-21" target="L0XOrqGyj3-YNECDvazH-10">
          <mxGeometry relative="1" as="geometry" />
        </mxCell>
        <mxCell id="L0XOrqGyj3-YNECDvazH-21" value="&lt;div&gt;works &lt;br&gt;&lt;/div&gt;&lt;div&gt;in&lt;/div&gt;" style="shape=rhombus;html=1;dashed=0;whitespace=wrap;perimeter=rhombusPerimeter;fontSize=16;" vertex="1" parent="1">
          <mxGeometry x="1140" y="-655" width="60" height="50" as="geometry" />
        </mxCell>
        <mxCell id="L0XOrqGyj3-YNECDvazH-22" style="edgeStyle=orthogonalEdgeStyle;curved=1;rounded=0;orthogonalLoop=1;jettySize=auto;html=1;fontSize=16;startArrow=none;startFill=0;endArrow=block;endFill=1;entryX=0.75;entryY=0;entryDx=0;entryDy=0;exitX=0;exitY=0.5;exitDx=0;exitDy=0;" edge="1" parent="1" source="L0XOrqGyj3-YNECDvazH-21" target="L0XOrqGyj3-YNECDvazH-14">
          <mxGeometry relative="1" as="geometry">
            <mxPoint x="1090" y="-620" as="sourcePoint" />
            <mxPoint x="980" y="-590" as="targetPoint" />
          </mxGeometry>
        </mxCell>
        <mxCell id="L0XOrqGyj3-YNECDvazH-23" style="edgeStyle=orthogonalEdgeStyle;curved=1;rounded=0;orthogonalLoop=1;jettySize=auto;html=1;entryX=1;entryY=0.25;entryDx=0;entryDy=0;fontSize=16;startArrow=none;startFill=0;endArrow=classic;endFill=1;" edge="1" parent="1" source="L0XOrqGyj3-YNECDvazH-25" target="L0XOrqGyj3-YNECDvazH-3">
          <mxGeometry relative="1" as="geometry" />
        </mxCell>
        <mxCell id="L0XOrqGyj3-YNECDvazH-24" style="edgeStyle=orthogonalEdgeStyle;curved=1;rounded=0;orthogonalLoop=1;jettySize=auto;html=1;entryX=0;entryY=0.5;entryDx=0;entryDy=0;fontSize=16;startArrow=none;startFill=0;endArrow=none;endFill=0;exitX=1;exitY=0.5;exitDx=0;exitDy=0;" edge="1" parent="1" source="L0XOrqGyj3-YNECDvazH-25" target="L0XOrqGyj3-YNECDvazH-27">
          <mxGeometry relative="1" as="geometry" />
        </mxCell>
        <mxCell id="L0XOrqGyj3-YNECDvazH-25" value="makes" style="shape=rhombus;html=1;dashed=0;whitespace=wrap;perimeter=rhombusPerimeter;fontSize=16;" vertex="1" parent="1">
          <mxGeometry x="1140" y="-1045" width="60" height="50" as="geometry" />
        </mxCell>
        <mxCell id="L0XOrqGyj3-YNECDvazH-26" style="edgeStyle=orthogonalEdgeStyle;curved=1;orthogonalLoop=1;jettySize=auto;html=1;entryX=1;entryY=0.5;entryDx=0;entryDy=0;endArrow=classic;endFill=1;startArrow=none;" edge="1" parent="1" source="L0XOrqGyj3-YNECDvazH-43" target="L0XOrqGyj3-YNECDvazH-42">
          <mxGeometry relative="1" as="geometry" />
        </mxCell>
        <mxCell id="L0XOrqGyj3-YNECDvazH-27" value="Visits" style="swimlane;childLayout=stackLayout;horizontal=1;startSize=30;horizontalStack=0;rounded=1;fontSize=14;fontStyle=0;strokeWidth=2;resizeParent=0;resizeLast=1;shadow=0;dashed=0;align=center;" vertex="1" parent="1">
          <mxGeometry x="1330" y="-1060" width="160" height="120" as="geometry" />
        </mxCell>
        <mxCell id="L0XOrqGyj3-YNECDvazH-28" value="+visit_id&#xa;+date&#xa;+duration&#xa;+ workout to perform" style="align=left;strokeColor=none;fillColor=none;spacingLeft=4;fontSize=12;verticalAlign=top;resizable=0;rotatable=0;part=1;" vertex="1" parent="L0XOrqGyj3-YNECDvazH-27">
          <mxGeometry y="30" width="160" height="90" as="geometry" />
        </mxCell>
        <mxCell id="L0XOrqGyj3-YNECDvazH-29" value="" style="edgeStyle=orthogonalEdgeStyle;curved=1;rounded=0;orthogonalLoop=1;jettySize=auto;html=1;fontSize=16;startArrow=none;startFill=0;endArrow=block;endFill=1;entryX=0.75;entryY=0;entryDx=0;entryDy=0;" edge="1" parent="1" source="L0XOrqGyj3-YNECDvazH-31" target="L0XOrqGyj3-YNECDvazH-12">
          <mxGeometry relative="1" as="geometry" />
        </mxCell>
        <mxCell id="L0XOrqGyj3-YNECDvazH-30" style="edgeStyle=orthogonalEdgeStyle;curved=1;rounded=0;orthogonalLoop=1;jettySize=auto;html=1;entryX=0.75;entryY=1;entryDx=0;entryDy=0;fontSize=16;startArrow=none;startFill=0;endArrow=none;endFill=0;exitX=0.5;exitY=0;exitDx=0;exitDy=0;" edge="1" parent="1" source="L0XOrqGyj3-YNECDvazH-31" target="L0XOrqGyj3-YNECDvazH-28">
          <mxGeometry relative="1" as="geometry">
            <Array as="points">
              <mxPoint x="1450" y="-775" />
              <mxPoint x="1450" y="-775" />
            </Array>
          </mxGeometry>
        </mxCell>
        <mxCell id="L0XOrqGyj3-YNECDvazH-31" value="occupies " style="shape=rhombus;html=1;dashed=0;whitespace=wrap;perimeter=rhombusPerimeter;fontSize=16;" vertex="1" parent="1">
          <mxGeometry x="1420" y="-735" width="60" height="50" as="geometry" />
        </mxCell>
        <mxCell id="L0XOrqGyj3-YNECDvazH-32" style="edgeStyle=orthogonalEdgeStyle;curved=1;rounded=0;orthogonalLoop=1;jettySize=auto;html=1;fontSize=16;startArrow=none;startFill=0;endArrow=none;endFill=0;" edge="1" parent="1" source="L0XOrqGyj3-YNECDvazH-35" target="L0XOrqGyj3-YNECDvazH-28">
          <mxGeometry relative="1" as="geometry">
            <mxPoint x="1380" y="-925" as="targetPoint" />
          </mxGeometry>
        </mxCell>
        <mxCell id="L0XOrqGyj3-YNECDvazH-33" style="edgeStyle=orthogonalEdgeStyle;curved=1;rounded=0;orthogonalLoop=1;jettySize=auto;html=1;fontSize=16;startArrow=none;startFill=0;endArrow=block;endFill=1;exitX=0.5;exitY=1;exitDx=0;exitDy=0;" edge="1" parent="1" source="L0XOrqGyj3-YNECDvazH-35" target="L0XOrqGyj3-YNECDvazH-14">
          <mxGeometry relative="1" as="geometry" />
        </mxCell>
        <mxCell id="L0XOrqGyj3-YNECDvazH-34" style="edgeStyle=orthogonalEdgeStyle;curved=1;rounded=0;orthogonalLoop=1;jettySize=auto;html=1;entryX=0.86;entryY=0;entryDx=0;entryDy=0;fontSize=16;startArrow=none;startFill=0;endArrow=block;endFill=1;exitX=0.5;exitY=1;exitDx=0;exitDy=0;entryPerimeter=0;" edge="1" parent="1" source="L0XOrqGyj3-YNECDvazH-35" target="L0XOrqGyj3-YNECDvazH-10">
          <mxGeometry relative="1" as="geometry" />
        </mxCell>
        <mxCell id="L0XOrqGyj3-YNECDvazH-35" value="&lt;div&gt;trains &lt;br&gt;&lt;/div&gt;&lt;div&gt;in&lt;/div&gt;" style="shape=rhombus;html=1;dashed=0;whitespace=wrap;perimeter=rhombusPerimeter;fontSize=16;" vertex="1" parent="1">
          <mxGeometry x="1350" y="-805" width="60" height="50" as="geometry" />
        </mxCell>
        <mxCell id="L0XOrqGyj3-YNECDvazH-36" value="" style="edgeStyle=orthogonalEdgeStyle;curved=1;rounded=0;orthogonalLoop=1;jettySize=auto;html=1;fontSize=16;startArrow=none;startFill=0;endArrow=classic;endFill=1;entryX=0.75;entryY=0;entryDx=0;entryDy=0;" edge="1" parent="1" source="L0XOrqGyj3-YNECDvazH-38" target="L0XOrqGyj3-YNECDvazH-4">
          <mxGeometry relative="1" as="geometry" />
        </mxCell>
        <mxCell id="L0XOrqGyj3-YNECDvazH-37" value="" style="edgeStyle=orthogonalEdgeStyle;curved=1;rounded=0;orthogonalLoop=1;jettySize=auto;html=1;fontSize=16;startArrow=none;startFill=0;endArrow=none;endFill=0;entryX=0;entryY=0.5;entryDx=0;entryDy=0;exitX=0.5;exitY=0;exitDx=0;exitDy=0;" edge="1" parent="1" source="L0XOrqGyj3-YNECDvazH-38" target="L0XOrqGyj3-YNECDvazH-28">
          <mxGeometry relative="1" as="geometry" />
        </mxCell>
        <mxCell id="L0XOrqGyj3-YNECDvazH-38" value="records" style="shape=rhombus;html=1;dashed=0;whitespace=wrap;perimeter=rhombusPerimeter;fontSize=16;" vertex="1" parent="1">
          <mxGeometry x="990" y="-910" width="60" height="50" as="geometry" />
        </mxCell>
        <mxCell id="L0XOrqGyj3-YNECDvazH-39" value="Payment" style="swimlane;childLayout=stackLayout;horizontal=1;startSize=30;horizontalStack=0;rounded=1;fontSize=14;fontStyle=0;strokeWidth=2;resizeParent=0;resizeLast=1;shadow=0;dashed=0;align=center;" vertex="1" parent="1">
          <mxGeometry x="1320" y="-1395" width="160" height="120" as="geometry" />
        </mxCell>
        <mxCell id="L0XOrqGyj3-YNECDvazH-40" value="+ Payment_id&#xa;+Â Amount &#xa;+Date&#xa;+ Payment method&#xa;" style="align=left;strokeColor=none;fillColor=none;spacingLeft=4;fontSize=12;verticalAlign=top;resizable=0;rotatable=0;part=1;" vertex="1" parent="L0XOrqGyj3-YNECDvazH-39">
          <mxGeometry y="30" width="160" height="90" as="geometry" />
        </mxCell>
        <mxCell id="L0XOrqGyj3-YNECDvazH-41" value="Non Members" style="swimlane;childLayout=stackLayout;horizontal=1;startSize=30;horizontalStack=0;rounded=1;fontSize=14;fontStyle=0;strokeWidth=2;resizeParent=0;resizeLast=1;shadow=0;dashed=0;align=center;" vertex="1" parent="1">
          <mxGeometry x="990" y="-1550" width="160" height="120" as="geometry" />
        </mxCell>
        <mxCell id="L0XOrqGyj3-YNECDvazH-42" value="+Non_Member_idÂ &#xa;+Reason for chosing gymÂ &#xa;+Favorite type of trainingÂ &#xa;(cardio or weight)&#xa;" style="align=left;strokeColor=none;fillColor=none;spacingLeft=4;fontSize=12;verticalAlign=top;resizable=0;rotatable=0;part=1;" vertex="1" parent="L0XOrqGyj3-YNECDvazH-41">
          <mxGeometry y="30" width="160" height="90" as="geometry" />
        </mxCell>
        <mxCell id="L0XOrqGyj3-YNECDvazH-43" value="makes" style="shape=rhombus;html=1;dashed=0;whitespace=wrap;perimeter=rhombusPerimeter;fontSize=16;" vertex="1" parent="1">
          <mxGeometry x="1240" y="-1095" width="60" height="50" as="geometry" />
        </mxCell>
        <mxCell id="L0XOrqGyj3-YNECDvazH-44" value="" style="edgeStyle=orthogonalEdgeStyle;curved=1;orthogonalLoop=1;jettySize=auto;html=1;entryX=1;entryY=0.5;entryDx=0;entryDy=0;endArrow=none;endFill=1;" edge="1" parent="1" source="L0XOrqGyj3-YNECDvazH-27" target="L0XOrqGyj3-YNECDvazH-43">
          <mxGeometry relative="1" as="geometry">
            <mxPoint x="1330.0000000000005" y="-999.9230769230769" as="sourcePoint" />
            <mxPoint x="1209.9999999999995" y="-1125" as="targetPoint" />
          </mxGeometry>
        </mxCell>
        <mxCell id="L0XOrqGyj3-YNECDvazH-45" style="edgeStyle=orthogonalEdgeStyle;curved=1;orthogonalLoop=1;jettySize=auto;html=1;entryX=0;entryY=0.75;entryDx=0;entryDy=0;endArrow=classic;endFill=1;" edge="1" parent="1" source="L0XOrqGyj3-YNECDvazH-47" target="L0XOrqGyj3-YNECDvazH-15">
          <mxGeometry relative="1" as="geometry" />
        </mxCell>
        <mxCell id="L0XOrqGyj3-YNECDvazH-46" style="edgeStyle=orthogonalEdgeStyle;curved=1;orthogonalLoop=1;jettySize=auto;html=1;entryX=0.25;entryY=0;entryDx=0;entryDy=0;endArrow=classic;endFill=1;" edge="1" parent="1" source="L0XOrqGyj3-YNECDvazH-47" target="L0XOrqGyj3-YNECDvazH-10">
          <mxGeometry relative="1" as="geometry" />
        </mxCell>
        <mxCell id="L0XOrqGyj3-YNECDvazH-47" value="Supervises" style="rhombus;whiteSpace=wrap;html=1;" vertex="1" parent="1">
          <mxGeometry x="650" y="-655" width="80" height="80" as="geometry" />
        </mxCell>
        <mxCell id="L0XOrqGyj3-YNECDvazH-48" style="edgeStyle=orthogonalEdgeStyle;curved=1;orthogonalLoop=1;jettySize=auto;html=1;endArrow=none;endFill=0;" edge="1" parent="1" source="L0XOrqGyj3-YNECDvazH-9" target="L0XOrqGyj3-YNECDvazH-47">
          <mxGeometry relative="1" as="geometry" />
        </mxCell>
        <mxCell id="L0XOrqGyj3-YNECDvazH-49" value="Subscription" style="swimlane;childLayout=stackLayout;horizontal=1;startSize=30;horizontalStack=0;rounded=1;fontSize=14;fontStyle=0;strokeWidth=2;resizeParent=0;resizeLast=1;shadow=0;dashed=0;align=center;" vertex="1" parent="1">
          <mxGeometry x="865" y="-1395" width="160" height="120" as="geometry" />
        </mxCell>
        <mxCell id="L0XOrqGyj3-YNECDvazH-50" value="+Subscription_id&#xa;+Length_of_subscription&#xa;+Amount paidÂ &#xa;" style="align=left;strokeColor=none;fillColor=none;spacingLeft=4;fontSize=12;verticalAlign=top;resizable=0;rotatable=0;part=1;" vertex="1" parent="L0XOrqGyj3-YNECDvazH-49">
          <mxGeometry y="30" width="160" height="90" as="geometry" />
        </mxCell>
        <mxCell id="L0XOrqGyj3-YNECDvazH-51" style="edgeStyle=orthogonalEdgeStyle;curved=1;orthogonalLoop=1;jettySize=auto;html=1;endArrow=block;endFill=0;" edge="1" parent="1" source="L0XOrqGyj3-YNECDvazH-53" target="L0XOrqGyj3-YNECDvazH-27">
          <mxGeometry relative="1" as="geometry" />
        </mxCell>
        <mxCell id="L0XOrqGyj3-YNECDvazH-52" style="edgeStyle=orthogonalEdgeStyle;curved=1;orthogonalLoop=1;jettySize=auto;html=1;endArrow=block;endFill=1;" edge="1" parent="1" source="L0XOrqGyj3-YNECDvazH-53" target="L0XOrqGyj3-YNECDvazH-40">
          <mxGeometry relative="1" as="geometry" />
        </mxCell>
        <mxCell id="L0XOrqGyj3-YNECDvazH-53" value="Has" style="rhombus;whiteSpace=wrap;html=1;" vertex="1" parent="1">
          <mxGeometry x="1410" y="-1150" width="60" height="60" as="geometry" />
        </mxCell>
        <mxCell id="L0XOrqGyj3-YNECDvazH-54" style="edgeStyle=orthogonalEdgeStyle;curved=1;orthogonalLoop=1;jettySize=auto;html=1;entryX=0.5;entryY=1;entryDx=0;entryDy=0;endArrow=block;endFill=0;" edge="1" parent="1" source="L0XOrqGyj3-YNECDvazH-56" target="L0XOrqGyj3-YNECDvazH-50">
          <mxGeometry relative="1" as="geometry" />
        </mxCell>
        <mxCell id="L0XOrqGyj3-YNECDvazH-55" style="edgeStyle=orthogonalEdgeStyle;curved=1;orthogonalLoop=1;jettySize=auto;html=1;entryX=0.5;entryY=0;entryDx=0;entryDy=0;endArrow=block;endFill=0;" edge="1" parent="1" source="L0XOrqGyj3-YNECDvazH-56" target="L0XOrqGyj3-YNECDvazH-2">
          <mxGeometry relative="1" as="geometry" />
        </mxCell>
        <mxCell id="L0XOrqGyj3-YNECDvazH-56" value="have" style="rhombus;whiteSpace=wrap;html=1;" vertex="1" parent="1">
          <mxGeometry x="910" y="-1200" width="70" height="70" as="geometry" />
        </mxCell>
        <mxCell id="L0XOrqGyj3-YNECDvazH-57" style="edgeStyle=orthogonalEdgeStyle;curved=1;orthogonalLoop=1;jettySize=auto;html=1;endArrow=block;endFill=0;" edge="1" parent="1" source="L0XOrqGyj3-YNECDvazH-59" target="L0XOrqGyj3-YNECDvazH-4">
          <mxGeometry relative="1" as="geometry" />
        </mxCell>
        <mxCell id="L0XOrqGyj3-YNECDvazH-58" style="edgeStyle=orthogonalEdgeStyle;curved=1;orthogonalLoop=1;jettySize=auto;html=1;entryX=0;entryY=0.75;entryDx=0;entryDy=0;endArrow=none;endFill=0;" edge="1" parent="1" source="L0XOrqGyj3-YNECDvazH-59" target="L0XOrqGyj3-YNECDvazH-40">
          <mxGeometry relative="1" as="geometry" />
        </mxCell>
        <mxCell id="L0XOrqGyj3-YNECDvazH-59" value="Processes" style="rhombus;whiteSpace=wrap;html=1;" vertex="1" parent="1">
          <mxGeometry x="980" y="-1130" width="80" height="70" as="geometry" />
        </mxCell>
        <mxCell id="L0XOrqGyj3-YNECDvazH-60" style="edgeStyle=orthogonalEdgeStyle;curved=1;orthogonalLoop=1;jettySize=auto;html=1;entryX=0.132;entryY=-0.008;entryDx=0;entryDy=0;entryPerimeter=0;endArrow=block;endFill=0;" edge="1" parent="1" source="L0XOrqGyj3-YNECDvazH-62" target="L0XOrqGyj3-YNECDvazH-4">
          <mxGeometry relative="1" as="geometry" />
        </mxCell>
        <mxCell id="L0XOrqGyj3-YNECDvazH-61" style="edgeStyle=orthogonalEdgeStyle;curved=1;orthogonalLoop=1;jettySize=auto;html=1;entryX=0;entryY=0.75;entryDx=0;entryDy=0;endArrow=none;endFill=0;" edge="1" parent="1" source="L0XOrqGyj3-YNECDvazH-62" target="L0XOrqGyj3-YNECDvazH-50">
          <mxGeometry relative="1" as="geometry" />
        </mxCell>
        <mxCell id="L0XOrqGyj3-YNECDvazH-62" value="Passes" style="rhombus;whiteSpace=wrap;html=1;" vertex="1" parent="1">
          <mxGeometry x="800" y="-1115" width="80" height="70" as="geometry" />
        </mxCell>
        <mxCell id="L0XOrqGyj3-YNECDvazH-63" value="" style="edgeStyle=orthogonalEdgeStyle;curved=1;orthogonalLoop=1;jettySize=auto;html=1;entryX=1;entryY=0.75;entryDx=0;entryDy=0;endArrow=none;endFill=0;startArrow=blockThin;startFill=0;" edge="1" parent="1" source="L0XOrqGyj3-YNECDvazH-42">
          <mxGeometry relative="1" as="geometry">
            <Array as="points" />
            <mxPoint x="1190" y="-1509.9333333333334" as="sourcePoint" />
            <mxPoint x="1396.666666666666" y="-1496.666666666667" as="targetPoint" />
          </mxGeometry>
        </mxCell>
      </root>
    </mxGraphModel>
  </diagram>
</mxfile>
